<?xml version="1.0" encoding="UTF-8"?>
<svg id="Layer_1" data-name="Layer 1" xmlns="http://www.w3.org/2000/svg" viewBox="0 0 1958.94 2400">
  <defs>
    <style>
      .cls-1 {
        fill: #00641b;
      }

      .cls-1, .cls-2, .cls-3, .cls-4, .cls-5, .cls-6 {
        stroke-width: 0px;
      }

      .cls-2 {
        fill: #fefefe;
      }

      .cls-4 {
        fill: #0b0b0b;
      }

      .cls-5 {
        fill: #0a0a0a;
      }

      .cls-6 {
        fill: #080808;
      }
    </style>
  </defs>
  <path class="cls-3" d="m0,0h1953.47c0,4.42,0,8.44,0,12.46.17,312.91-.13,625.81.69,938.72.46,175.93,2.83,351.85,4.18,527.78.23,30.06,1.75,60.34-1.1,90.15-4.38,45.72-10.77,91.36-18.78,136.59-5.32,30.05-13.19,59.93-23.04,88.82-16.49,48.35-36.9,95.24-64.04,138.76-18.47,29.62-35.44,60.74-57.75,87.26-34.97,41.55-73.39,80.26-111.37,119.18-16.37,16.77-34.61,31.96-53.26,46.21-18.93,14.48-39.15,27.35-59.29,40.16-25.82,16.42-51.79,32.65-78.35,47.83-15.57,8.9-32.31,15.81-48.71,23.2-19.71,8.89-39.37,17.97-59.5,25.8-21.05,8.18-42.54,15.32-64.05,22.24-18.86,6.07-37.88,11.79-57.09,16.63-26.64,6.72-53.33,13.57-80.35,18.36-29.12,5.17-58.63,8.21-88.01,11.8-12.55,1.53-25.2,2.36-37.83,3.09-31.65,1.83-63.52,6.54-94.92,4.42-55.56-3.75-111.13-9.81-166.13-18.51-44.94-7.11-89.41-18.17-133.45-29.87-47.35-12.58-91.67-33.66-135.99-54.31-23.37-10.89-47.11-21.14-69.79-33.34-22.6-12.16-44.61-25.61-65.94-39.9-25.92-17.37-52.43-34.41-75.86-54.84-36.95-32.21-73.13-65.63-106.62-101.37-26.04-27.8-47.88-59.61-70.86-90.18-31.18-41.49-55.02-87.48-74.85-135.05-15.45-37.06-26.62-76.03-37.91-114.67-6.46-22.09-8.6-45.4-14.03-67.84-10.26-42.33-8.07-85.34-8.34-128.21-.54-84.79-.69-169.59-.73-254.39C.22,855.13.12,433.25,0,11.38,0,8.01,0,4.65,0,0Zm497.34,783.17c-151.32,0-302.64,0-453.96,0-17.46,0-18.11.61-18,17.71.76,115.66,1.6,231.33,2.34,346.99.92,143.63,1.86,287.26,2.61,430.9.22,42.84,7.48,84.7,16.91,126.23,15.06,66.28,39.99,128.83,72.52,188.43,30.51,55.89,66.89,107.83,110.67,153.82,31.98,33.61,66.83,64.68,102.03,94.99,54.04,46.53,115.21,82.58,179.07,113.71,73.83,35.99,151.16,62.43,231.5,79.96,66.43,14.5,133.46,23.68,201.51,24.9,19.56.35,19.6.47,19.64-14.84.84-281.42,1.93-562.83,2.43-844.25.41-233.18.11-466.36.13-699.54,0-18.93-.06-19.02-19.25-19.02-150.05,0-300.09,0-450.14,0Zm964.03-.09c-146.67,0-293.34,0-440.01,0-27.27,0-26.95,0-27.25,26.74-.24,21.06-1.99,42.12-2.02,63.17-.27,238.71-.08,477.42-.54,716.13-.4,205.94-1.51,411.88-2.23,617.82-.17,47.91.22,95.83-.26,143.73-.1,10.26,3.33,13.56,13.24,12.95,21.44-1.33,43-1.15,64.37-3.12,25.32-2.33,50.54-5.92,75.71-9.64,20.12-2.97,40.25-6.18,60.08-10.63,30.98-6.96,61.97-14.14,92.45-22.98,24.06-6.98,47.6-15.99,70.93-25.22,30.16-11.93,60.78-23.22,89.55-38,34.6-17.77,68.61-37.25,100.8-59.05,37.34-25.29,73.89-52.2,108.04-81.59,28.5-24.52,53.68-53.06,79.19-80.87,35.71-38.93,64.89-82.7,91.06-128.5,35.22-61.64,60.65-127.01,77.05-196.16,12.32-51.95,18.31-104.51,19.13-157.67.46-29.54-1.67-59.12-1.72-88.68-.36-220.48-.5-440.96-.71-661.44q-.02-17.04-16.67-17.01c-150.06,0-300.12,0-450.18.01ZM24.84,757.9c5.45.27,8.81.57,12.17.57,318.68.66,637.36,1.53,956.04,1.88,291.62.32,583.25.07,874.88.07,16.26,0,32.53.24,48.78-.14,6.07-.14,9.65-3.23,9.41-10.45-.52-15.59-.28-31.22-.28-46.83.02-223.43.07-446.87.06-670.3,0-3.24-.52-6.48-.85-10.45h-15.81c-622.25,0-1244.49,0-1866.74,0q-19.26,0-17.7,18.43c.24,2.95.04,5.93.04,8.9,0,125.9,0,251.79,0,377.69,0,100.91,0,201.81,0,302.72v27.92Z"/>
  <path class="cls-1" d="m497.34,783.17c150.05,0,300.09,0,450.14,0,19.19,0,19.26.09,19.25,19.02-.02,233.18.28,466.36-.13,699.54-.49,281.42-1.59,562.83-2.43,844.25-.05,15.31-.08,15.19-19.64,14.84-68.05-1.21-135.08-10.4-201.51-24.9-80.34-17.54-157.67-43.97-231.5-79.96-63.86-31.13-125.03-67.18-179.07-113.71-35.2-30.31-70.04-61.38-102.03-94.99-43.77-46-80.16-97.94-110.67-153.82-32.54-59.61-57.46-122.15-72.52-188.43-9.44-41.53-16.69-83.39-16.91-126.23-.75-143.63-1.69-287.26-2.61-430.9-.74-115.66-1.58-231.33-2.34-346.99-.11-17.1.55-17.71,18-17.71,151.32-.02,302.64,0,453.96,0Zm53.98,1031.91c1.49-.45,2.98-.91,4.48-1.36,1.28-1.62,3.15-3.05,3.74-4.89,8.92-27.78,12.32-55.92,2.41-84.07-2.83-8.02-1.75-11.14,5-17.19,30.84-27.62,43.42-62.42,36.51-103.91-1.89-11.36-4.39-21.57,7.65-32.34,17.19-15.36,24.73-37.52,24.82-61.27.1-24-9.72-44.14-24.45-61.23,10.19-9.04,21.31-16.41,28.96-26.43,7.2-9.42,13.06-21.21,15.22-32.76,2.23-11.93,1.53-25.48-1.87-37.16-7.69-26.4-29.13-42.52-52-53.7-12.13-5.93-28.9-2.39-46.34-3.26,5.86,20.82,12.34,37.06,29.25,47.49,12.73,7.86,20.95,27.29,17.59,39.64-5.12,18.86-32.03,39.17-51.89,39.18-9.33,0-18.67-.38-27.97.11-8.09.43-11.32-2.26-11.27-10.79.3-46.21.29-92.43,0-138.64-.05-8.22,2.68-10.67,10.93-11.29,11.82-.89,24.31-2.01,35.04-6.54,27.02-11.4,54.6-14.84,83.71-13.82,37.68,1.32,75.44.11,113.16.48,8.76.09,12.44-2.5,11.78-11.57-.58-8.05-.72-14.44-12.06-14.25-34.32.59-68.67.21-103,.21h-19.78c5.01-7.97,10.96-13.22,22.52-13.02,42.38.75,84.77.12,127.16.46,8.79.07,10.72-3.65,10.64-11.48-.08-7.51-1.26-12.27-10.37-11.71-9.29.57-18.64.13-27.97.13-31.22,0-62.45,0-94.69,0,1.87-11.91,9.4-12.74,17.67-12.74,47.48.03,94.95-.17,142.42.17,9.49.07,15.97-.66,16.22-12.65.29-14.05-9.49-10.33-16.67-10.37-45.35-.19-90.71,0-136.06-.14-4.37-.01-8.74-1.53-13.11-2.35-.15-1.86-.3-3.71-.45-5.57,5.4-1.56,10.8-4.46,16.21-4.49,61.42-.32,122.85-.2,184.99-.2.24-2.11.16-3.73.62-5.18,4.82-15.21,3.05-17.73-12.79-17.73-81.39,0-162.77-.12-244.16.28-5.05.02-13.21,2.85-14.62,6.46-13.59,34.63-41.63,51.61-74.4,63.15-10.75,3.79-14.91.97-15.25-10.16-.38-12.71-.88-25.51.25-38.13.55-6.07,4.16-12.15,7.41-17.61,3.65-6.13,9.37-11.1,12.58-17.39,6.77-13.27.85-36.31-10.45-44.15-13.49-9.35-38.32-8.67-49,1.34-16.33,15.32-16.63,41.59-1.17,58.11,4.03,4.3,8.87,9.81,9.32,15.12,1.28,14.73.08,29.65.57,44.48.32,9.46-5.46,11.78-12.01,9.41-12.59-4.57-25.02-10.06-36.66-16.67-21.55-12.22-35.1-31.65-44.05-54.22-24.61,0-48.34,0-72.07,0-62.31-.01-124.62-.07-186.93-.02-10.67,0-14.01,4.63-11.12,14.8.76,2.66,1.79,5.24,2.79,8.11,63.14,0,125.85-.12,188.56.21,5.66.03,11.3,3,16.95,4.6-.2,1.94-.41,3.87-.61,5.81-4.49.7-8.98,1.99-13.47,2.01-47.9.13-95.8.05-143.7.04-12.82,0-14.39,2.12-11.23,14.5.67,2.63.72,5.42,1.1,8.45,45.03,0,89.08,0,133.14,0,9.33,0,18.78-.93,27.93.32,6.46.88,16.64-.49,15.84,12.4-3.11,0-5.62,0-8.12,0-39,0-78,.29-116.99-.2-9.91-.12-12.6,3.62-11.93,12.71.76,10.35,6.45,14.93,16.68,12.65,4.4-.98,8.9-2.14,13.35-2.16,37.72-.17,75.46.38,113.17-.38,11.65-.24,17.37,5.27,23.31,15.21-2.66-1.07-3.76-1.89-4.85-1.9-41.95-.15-83.9-.36-125.84-.19-9.08.04-9.9,7.7-10.13,14.37-.25,7.07,2.37,11.21,11.03,11.14,50.44-.38,100.89-.44,151.32.04,9.27.09,18.66,2.66,27.74,5.03,14.54,3.79,29.04,7.87,43.22,12.8,9.28,3.22,23.76-.75,23.59,17.04-.44,45.36-.03,90.73-.4,136.1-.03,3.14-3.7,8.94-5.74,8.97-23.45.36-47.53,4.7-67.84-13.3-23.39-20.73-28.37-45.24,1.56-65.91,6.43-4.44,11.6-11.23,16.04-17.83,3.28-4.88,5.3-11.06,6.18-16.91.47-3.12-1.96-9.02-4.32-9.76-6.6-2.09-14.62-4.51-20.68-2.54-13.36,4.36-26.9,9.79-38.49,17.57-23.71,15.93-38.35,39.05-35.94,68.01,2.08,25.04,15.62,45.42,37.76,59.06,3.02,1.86,5.41,4.73,8.08,7.11-35.46,39.35-36.4,95.92,8.06,133.26,2.84,2.39,4.47,8.55,3.79,12.45-7.64,43.28-.92,82.02,33.08,113.13,2.6,2.38,4.7,8.32,3.57,11.27-11.05,28.67-9.47,57.25-.65,85.9,1.25,4.06,4.01,7.66,6.07,11.47,1.38.29,2.76.58,4.13.87,2.86-34.55,11.75-65.52,45.8-84.12v122.72h33.44v-120.09c29.66,19.93,38.28,48.71,39.44,81.37Z"/>
  <path class="cls-2" d="m1461.36,783.08c150.06,0,300.12,0,450.18,0q16.63,0,16.67,17.01c.21,220.48.35,440.96.71,661.44.05,29.56,2.17,59.14,1.72,88.68-.83,53.17-6.81,105.72-19.13,157.67-16.4,69.16-41.84,134.52-77.05,196.16-26.17,45.8-55.35,89.57-91.06,128.5-25.51,27.81-50.69,56.34-79.19,80.87-34.15,29.39-70.7,56.3-108.04,81.59-32.19,21.8-66.19,41.28-100.8,59.05-28.77,14.78-59.39,26.07-89.55,38-23.33,9.23-46.87,18.23-70.93,25.22-30.48,8.84-61.47,16.02-92.45,22.98-19.82,4.46-39.96,7.67-60.08,10.63-25.17,3.71-50.39,7.3-75.71,9.64-21.37,1.97-42.93,1.8-64.37,3.12-9.91.61-13.34-2.68-13.24-12.95.48-47.91.1-95.82.26-143.73.72-205.94,1.84-411.88,2.23-617.82.46-238.71.27-477.42.54-716.13.02-21.06,1.78-42.11,2.02-63.17.3-26.74-.01-26.74,27.25-26.74,146.67,0,293.34,0,440.01,0Zm-56.11,546.72c9.77-6.04,19.36-10.44,27.06-17.05,18.23-15.65,24.54-58.01,15.3-83-5.81-15.71-15.01-26.3-31.09-30.27-8.05-1.99-16.42-2.64-24.65-3.94-29.16-4.62-58.17,8.08-70.42,34.43-7.86,16.9-11.19,35.95-16.18,54.14-1.92,7.01-2.49,14.58-12.77,13.27-19.83-2.54-39.65-5.09-59.49-7.57-18.17-2.27-36.57-4.52-50.53-17.9-18.53-17.76-29.46-39.13-6.3-61.75,20.05-19.58,45.2-29.03,70.8-36.78,41.06-12.44,82.75-22.8,124.14-34.13,45.97-12.58,89.73-30.63,129.76-56.48,24.42-15.77,48.54-32.61,64.7-57.97,6.21-9.75,5.27-21.76-2.3-27.05-10.19-7.11-16.22-5.36-26,4.73-12,12.39-24.15,24.92-37.76,35.41-33.65,25.94-71.37,44.35-112.01,56.8-34.72,10.64-69.05,22.77-104.15,31.91-40.78,10.62-82.27,18.73-117.62,43.53-20.19,14.17-34.77,32.76-38.47,57.77-6.35,42.9,33.44,85.6,68.79,91.67,30.3,5.2,60.92,8.49,91.32,13.17,4.35.67,9.67,3.4,12.01,6.89,3.66,5.44-4.29,32.8-9.12,37.37-17.3,16.35-36.1,31.49-51.2,49.69-17.69,21.32-34.94,43.92-47.34,68.5-26.85,53.24-19.31,107.28,2.7,160.68,12.87,31.23,35.35,54.63,59.39,76.89,8.14,7.53,7.07,16.45,4.39,24.36-2.95,8.72-6.22,18.12-19.47,18.78-40.87,2.03-76.13,18.41-106.29,45.68-34.14,30.87-36.94,75.72,6.87,96.62,18.46,8.8,37.17,11.02,56.72-1.69,32.2-20.94,54.89-49.03,70.43-83.48,3.46-7.67,7.95-11.87,16.43-8.98,15.17,5.16,22.08,13.97,19.23,23.91-6.25,21.8-13.9,43.32-18.34,65.48-6,29.94-.4,58.18,23.9,78.87,16.75,14.26,29.76,18.75,45.16,10.46,35.77-19.26,56.75-46.6,48.8-90.2-5.09-27.9-11.14-54.8-34.99-73.5-2.94-2.3-7.16-3.86-8.68-6.84-1.87-3.68-1.54-8.48-2.15-12.79,4.02-.07,8.93-1.69,11.91.04,16.39,9.51,31.59,21.35,48.57,29.54,26.82,12.95,54.46,21.52,85.19,10.55,39.44-14.08,55.66-58.82,31.65-92.31-3.78-5.28-9.54-9.31-14.85-13.3-23.18-17.46-47.3-33.58-78.29-28.67-28.8,4.56-53.91,17.85-76.55,36.16-3.04,2.46-9.79,4.7-12.02,3.11-15.91-11.32-31.55-23.15-46.17-36.06-3.36-2.97-3.74-10.93-3.23-16.38,2.05-21.61,5.21-43.12,7.55-64.71,2.88-26.62,5.4-53.28,7.97-79.93,3.34-34.57,6.67-69.14,9.8-103.73,1.96-21.7,3.28-43.46,5.57-65.12.37-3.49,3.6-7.94,6.75-9.64,9.38-5.07,19.23-9.37,29.19-13.21,4.36-1.68,9.42-1.54,14.17-2.22.47,1.39.94,2.78,1.42,4.18-7.19,6.19-15.21,11.66-21.42,18.71-16.24,18.45-16.14,39.65-6.59,60.79,8.31,18.4,22.16,32.5,42.86,35.12,33.38,4.22,73.46-31.87,72.77-65.85-.35-17.24-4.2-34.6-8.17-51.51-1.89-8.02-1.81-12.83,5.38-17.68,8.61-5.81,16.19-13.12,24.63-19.21,2.97-2.14,7.16-2.59,12-4.22-.89,14.4-1.53,26.87-2.44,39.32-1.61,21.75-2.96,43.54-5.42,65.19-.54,4.76-4.34,10.19-8.22,13.38-36.23,29.79-71.02,60.93-94.14,102.59-21.75,39.2-27.21,79.45-.09,118.15,9.25,13.2,22.43,29.36,36.38,32.42,33.19,7.27,63-.89,74.18-43.34,12.21-46.34,14.78-93.73,19.91-140.9,1.76-16.19,3.15-32.43,5.06-48.6,1.03-8.71,21.08-24.07,30.46-23.79-.77,15.46-.86,31-2.42,46.38-4.45,43.78-1.72,87.25,5.93,130.36,1.01,5.72,8.47,13.64,13.76,14.35,5.62.75,13.61-4.7,17.92-9.71,3.14-3.66,2.88-11.04,2.61-16.69-1.24-26-4.79-52.02-4.18-77.95.86-36.44,4.42-72.83,7.44-109.19.47-5.71,2.65-13.19,6.74-16.32,13.46-10.3,28.16-18.98,42.39-28.28,12.13-7.93,24.63-15.35,36.27-23.93,9.16-6.75,10.44-17.22,3.76-25.08-6.5-7.64-12.78-13.78-24.29-5.07-14.38,10.88-30.48,19.48-47.63,30.18-.63-4.72-2.15-8.34-1.33-11.31,2.85-10.33,6.8-20.35,9.75-30.65,1.65-5.76,4.7-13.06,2.58-17.51-3.16-6.64-9.54-14.07-16.06-15.96-4.36-1.27-14.62,5.24-16.57,10.42-7.41,19.63-13.45,39.91-18.22,60.36-5.03,21.58-8.68,43.32-30.64,55.12-3.05,1.64-6.67,2.21-10.02,3.27-.89-2.95-2.7-5.96-2.52-8.85,2.12-34.32,5.48-68.59,6.51-102.93.62-20.53-14.78-28.46-32.11-16.94-23.5,15.61-46.06,32.66-68.77,49.42-7.28,5.37-27.85,5.41-37.19-1.95Zm307.15,190.4c-.08,0-.16,0-.23,0,0,6.78-1.91,14.35.48,20.13,3.07,7.42,8.54,15.03,15.1,19.28,3.08,2,12.81-2.13,16.45-6.23,3.79-4.25,5.12-11.76,5.35-17.93,1.3-34.99.95-70.07,3.11-105,2.04-32.91,6.76-65.65,9.72-98.52.99-10.95-9.99-26.37-16.41-23.23-8.35,4.08-18.22,12.58-20.14,20.86-4.96,21.42-6.95,43.7-8.24,65.75-2.43,41.59-3.54,83.25-5.2,124.89Zm14.44,79.83c-11.46.07-24.37,12.55-24.66,23.83-.3,12.06,12.19,26.31,23.39,26.68,11.63.38,26.61-13.87,26.61-25.3,0-13.04-12.32-25.29-25.34-25.21Z"/>
  <path class="cls-2" d="m24.84,757.9v-27.92c0-100.91,0-201.81,0-302.72,0-125.9,0-251.79,0-377.69,0-2.97.2-5.95-.04-8.9q-1.53-18.46,17.7-18.43c622.25,0,1244.49,0,1866.74,0h15.81c.34,3.97.85,7.21.85,10.45,0,223.43-.04,446.87-.06,670.3,0,15.61-.24,31.23.28,46.83.24,7.22-3.34,10.31-9.41,10.45-16.25.38-32.52.14-48.78.14-291.63,0-583.25.25-874.88-.07-318.68-.35-637.36-1.22-956.04-1.88-3.36,0-6.72-.31-12.17-.57Zm253.87-230.79c1.22,1,2.45,2,3.67,3,0,44.88-.29,89.76.1,134.64.27,31.32-6.83,26.65,29.07,26.5,3.01-.01,8.06-5.26,8.57-8.62,1.25-8.29.41-16.89.41-25.37,0-65.69,0-131.38,0-197.07,0-6.39,1.23-13.15-8.96-12.89-15.24.38-30.53-.32-45.74.45-3.08.16-7.76,4.31-8.59,7.45-4.07,15.42-7.1,31.12-10.5,46.72-6.78,31.21-13.43,62.44-20.57,93.57-.62,2.73-4.43,4.72-6.75,7.06-1.91-2.33-4.84-4.39-5.53-7.04-1.53-5.94-1.51-12.27-2.89-18.27-9.17-39.87-18.73-79.65-27.67-119.58-1.74-7.78-5.66-10.42-13-10.32-12.71.18-25.46.68-38.12-.15-10.36-.67-12.92,3.24-12.84,13.13.43,53.4.17,106.8.22,160.2.02,20.34.38,40.68.28,61.02-.03,6.85,2.16,10.05,9.55,9.86,32.03-.86,28.2,6.57,28.28-26.25.11-45.29.03-90.58.03-135.89,10.72-1.53,11.34,6.23,12.57,12.37,1.86,9.29,2.36,18.85,4.17,28.15,6.12,31.38,13.33,62.56,18.63,94.07,4.22,25.11,6.04,27.77,31.17,27.77,4.62,0,9.24,0,13.63,0,2.25-6.86,4.89-12.9,6.2-19.21,9.51-45.75,18.67-91.57,28.28-137.3.63-2.99,4.14-5.37,6.32-8.03Zm1094.33,164.53c.24-2.16.92-3.71.43-4.62-10.89-20.11-21.04-40.7-33.23-60-7.74-12.26-18.67-22.48-27.94-33.8-4.19-5.12-3.97-10.1,3.06-12.33,23.8-7.57,36.94-24.21,43.27-47.85,8.86-33.04-8.66-83.67-57.62-85.4-33.84-1.2-67.76-.46-101.64.16-3.03.06-7.91,5.27-8.52,8.69-1.31,7.39-.4,15.18-.4,22.81,0,66.51-.02,133.03.04,199.54,0,5.6-1.97,12.77,7.61,12.8,10.85.04,21.69,0,33.05,0,0-30.65.38-59.84-.22-89-.19-9.4,3.46-11.95,12.03-12.95,24.73-2.87,35.52,14.3,45.77,31.47,12.77,21.39,24.31,43.53,36.69,65.16,1.36,2.38,4.72,4.99,7.24,5.08,13.44.5,26.92.24,40.38.24Zm-630.78,0c-3.45-7.23-5.86-12.87-8.76-18.24-14.97-27.81-26.47-57.82-51.28-79.38-6.65-5.78-3.29-10.13,3.25-14.27,10.14-6.42,21.64-12.25,28.92-21.27,12.27-15.23,17-33.66,13.23-53.84-6.28-33.69-25.87-56.02-61.89-57.05-30.9-.89-61.85.26-92.75-.43-10.8-.24-13.64,3.19-13.57,13.73.43,67.36.22,134.73.22,202.09,0,29.12,0,28.74,28.66,28.88,9.59.05,12.41-3.1,12.22-12.46-.53-26.26-.36-52.53.02-78.8.05-3.56,1.98-9.02,4.61-10.27,10.26-4.87,31.76,2.38,38.37,12.98,13.19,21.14,26.18,42.44,38.33,64.18,8.91,15.94,18.03,29.58,39.78,24.35,5.57-1.34,11.74-.2,20.62-.2Zm-337.78-147.56c0-15.75.48-29.75-.17-43.69-.44-9.36,2.55-12.71,12.19-12.47,23.72.59,47.46.19,71.2.19,29.15,0,28.77,0,28.91-28.66.05-9.59-3.1-12.32-12.46-12.23-42.8.41-85.61.44-128.41-.01-9.71-.1-12.17,3.29-12.13,12.53.31,73.34.33,146.67-.02,220.01-.05,9.78,3.42,12.17,12.59,12.07,40.26-.4,80.52-.02,120.78-.23,28.39-.14,23.86,4.2,24.67-25.15.31-11.39-3.85-15.87-15.42-15.68-30.08.49-60.18-.11-90.27.34-8.98.13-11.96-2.88-11.62-11.74.57-14.81.47-29.68.03-44.5-.23-7.93,2.99-10.3,10.53-10.19,22.46.32,44.92.12,67.38.12,26.63,0,26.02-.02,26.78-27.03.33-11.81-4.09-14.12-14.73-13.89-29.56.63-59.13.22-89.84.22Zm1364.22,149.57c17.7,2.93,34.83.19,49.48-10.57,26.51-19.47,37.59-45.78,30.98-78.44-5.15-25.44-20.44-43.29-44.34-52.73-19.62-7.75-39.95-13.65-59.88-20.65-18.21-6.4-21.7-26.44-7.43-39.68,10.49-9.73,23.1-4.83,34.82-5.99,14.41-1.43,24.2,7.3,27.38,18.99,3.59,13.16,10.53,15.25,21.64,14.11,3.77-.39,7.66-.4,11.43,0,11.51,1.24,12.92-5.29,10.81-14.08-7.95-33.15-27.64-53.54-62.14-60.05-30.98-5.85-63.8,5.52-80.29,30.09-11.69,17.41-15.73,36.6-9.28,56.36,6.86,21.03,20.64,37.56,41.68,45.93,19.24,7.65,39.43,12.92,58.52,20.88,6.54,2.72,14.37,9.65,15.75,15.95,2.75,12.5,2.82,26.78-11.3,34.3-16.34,8.7-33.8,7.86-50.71,2.07-14.52-4.97-17.48-19.67-23.82-31.49-1.87-3.49-6.45-8.22-9.37-7.95-9.52.89-18.92,3.59-28.14,6.33-.95.28-1.42,5.91-.43,8.38,5.69,14.22,9.56,29.96,18.43,41.93,15.87,21.41,38.85,30.49,66.2,26.31Zm-748.67-157.2c0-19.91.3-39.83-.07-59.74-.65-34.72,6.93-28.5-30.49-29.42-7.84-.19-10.38,2.81-10.24,10.44,1.03,57.83.57,115.71,3.18,173.46,1.23,27.35,17.89,46.3,43.48,58.2,17.81,8.28,35.63,3.77,53.39,4.52,22.73.96,38.65-11.77,50.97-29.74,11.98-17.47,13.68-37.82,14.12-57.76.96-43.62.3-87.27.3-130.92,0-28.37,0-27.93-27.96-28.32-10.17-.15-13.06,3-12.95,13.05.49,44.48.51,88.98.03,133.46-.14,13.21-1.09,26.73-4.22,39.48-2.75,11.16-11.6,19.67-23.73,20.01-17.04.48-36.78,5.73-47.41-13.88-4.7-8.67-7.57-19.26-8.02-29.13-1.12-24.52-.37-49.13-.37-73.71Zm625.73,2.25v-64.85c0-26.58,0-26.15-27.09-26.66-10.35-.19-13.98,2.45-13.86,13.45.57,51.71.57,103.43.06,155.14-.15,15.31-4.57,30.49-20.61,36.19-8.67,3.09-19.12,1.46-28.76,1.45-14.28-.01-25.75-7.91-29.02-22.14-3.03-13.21-4.9-26.95-5.13-40.49-.66-38.99-.23-77.99-.23-116.99,0-26.54,0-26.09-27.14-26.62-10.44-.2-14.04,2.59-13.78,13.52,1.33,55.73,1.77,111.49,2.84,167.23.46,24.06,21.73,51.92,43.19,61.55,19.3,8.66,38.92,2.88,58.32,4.47,5,.41,10.55-1.55,15.35-3.59,32.69-13.82,44.43-41.16,45.67-74.09.97-25.82.19-51.71.19-77.56Zm91.57-306.18c0,35.58.18,71.16-.11,106.74-.09,10.31,4.13,14.36,14.32,14.13,17.78-.4,35.58.28,53.35-.23,15.24-.43,28.87-6.22,36.31-19.81,5.31-9.69,7.98-21.05,10.6-31.95,6.02-25.06,3.03-48.05-15.93-67.74-3.03-3.15-3.94-12.36-1.58-16.03,16.73-26.04,16.71-52.77,4.71-79.96-7.09-16.08-20.12-24.09-38.25-23.63-17.35.44-34.74.51-52.08-.08-9.12-.31-11.6,3.14-11.5,11.84.38,35.58.16,71.16.16,106.74Zm-832.72,290.93c8.18-2.31,18.2-4.49,27.61-8.2,2.95-1.16,6.54-6.89,5.99-9.8-6.65-34.86-49.75-67.09-85.48-62.89-33.06,3.88-58.2,20.85-74.37,50.54-14.71,27.01-18.93,56.01-17.81,86.27,1.41,38.32,12.66,72.09,42.79,97.9,24.28,20.81,52.36,21.45,80.6,13.49,31.93-9.01,44.47-36.55,54.37-65.01.98-2.83-.89-9.19-3.09-10.15-10.64-4.68-21.85-8.08-33.4-12.12-.78,3.36-1.06,4.51-1.32,5.66-3.72,16.93-9.34,34.37-25.95,41.3-35.4,14.76-63.66-5.61-67.62-41.71-2.84-25.94-2.95-52.72.02-78.63,4.22-36.76,38.42-59.63,74.95-36.4,9.39,5.97,14.52,18.65,22.72,29.75ZM506.22,232.39c0,35.6.5,71.22-.29,106.8-.26,11.72,4.54,14.42,14.63,14.16,13.55-.36,27.16.6,40.67-.27,15.05-.97,27.6-6.9,37.61-19.37,11.25-14.02,16.05-29.92,19.5-46.96,8.73-43.17,8.62-86.15-5.63-127.92-9.62-28.2-23.56-47.37-60.62-44.84-11.39.78-22.9.58-34.31-.03-8.88-.47-11.83,2.66-11.73,11.62.41,35.6.17,71.2.17,106.81Zm763.08,26.99c-5.63-3.39-11.16-4.73-12.29-7.73-7.45-19.79-13.96-39.93-20.76-59.96-7.71-22.72-14.95-45.62-23.32-68.1-3.99-10.73-14.38-10.64-23.63-9.06-2.57.44-6.19,5.56-6.21,8.54-.35,72.9-.45,145.8.22,218.69.04,3.87,6.73,10,11.25,11.04,10.14,2.33,13.87-3.94,13.8-13.97-.28-41.48-.12-82.97-.12-127.4,4.52,2.58,9.07,3.57,9.92,5.9,9.74,26.78,18.61,53.88,28.35,80.66,5.95,16.37,13.32,32.23,19.44,48.55,4.28,11.4,13.6,6.59,20.46,6.24,7.63-.39,8.42-7.5,8.4-14.39-.15-69.93-.2-139.86.02-209.79.03-10.02-3.41-14.25-13.85-14.77-11.51-.57-11.89,5.42-11.83,14.11.28,42.35.12,84.71.12,131.43Zm-399.35-4.41c-1.05,1.16-2.09,2.31-3.14,3.47-3.72-3.27-9.36-5.85-10.85-9.93-7.79-21.42-14.32-43.29-21.71-64.86-6.72-19.64-14.1-39.05-20.97-58.63-4.18-11.93-13.73-12.14-23.54-10.75-9.9,1.41-6.11,9.77-6.13,15.3-.23,70.34.06,140.68-.38,211.02-.07,10.58,4.67,12.44,13.41,12.82,9.43.41,11.92-6.07,12.02-12.6.49-32.62.47-65.26.06-97.88-.12-9.71-2.05-19.4-3.15-29.1,1.62-.87,3.24-1.74,4.85-2.61,3.7,3.89,8.87,7.16,10.8,11.79,4.37,10.47,6.84,21.71,10.62,32.45,10.14,28.8,20.68,57.47,30.8,86.28,4.11,11.68,13.1,12.76,23.19,11.45,10.77-1.4,9.55-9.76,9.55-17.37-.03-69.07-.12-138.14.1-207.21.03-10-3.38-14.27-13.83-14.78-11.47-.56-11.91,5.37-11.85,14.09.28,42.35.13,84.7.13,127.05Zm206.04-100.16c22.6,0,43.37.39,64.11-.33,4.14-.14,11.57-4.5,11.6-6.99.14-10.91-1.83-21.86-3.33-32.75-.06-.42-3.11-.6-4.77-.61-28.39-.04-56.78-.14-85.17.06-6.27.04-10.6,2.22-10.57,10.26.24,72.05.19,144.1.08,216.15-.01,9.16,4.21,12.78,13.09,12.72,26.69-.17,53.4.32,80.07-.43,4.63-.13,13.09-5.23,12.99-7.77-.42-10.7,6.05-23.07-5.26-31.91-.87-.68-2.45-.66-3.68-.61-18.84.77-37.68,1.49-56.51,2.49-7.61.4-13.23-.05-12.83-10.31.63-16.08.46-32.21.04-48.31-.21-7.94,3.01-10.44,10.55-10.17,11.43.41,22.88.27,34.32.08,30.72-.51,25.75,5.38,26.65-27.01.26-9.41-3.64-11.51-12.07-11.26-16.51.48-33.07.59-49.55-.23-3.38-.17-9.13-4.91-9.32-7.84-.96-14.67-.44-29.43-.44-45.22Zm-424.79,78.87c0,35.58.32,71.17-.21,106.74-.14,9.31,3.2,12.87,11.96,12.85,27.95-.06,55.91.23,83.85-.33,3.68-.07,9.96-3.84,10.42-6.64,1.41-8.65,1.31-17.76.18-26.48-.36-2.76-5.84-6.94-8.95-6.92-18.82.13-37.67.85-56.43,2.3-9.57.74-16.15-5.99-15.49-15.78.88-12.99.07-26.08.4-39.11.19-7.44,1.72-14.17,11.71-13.97,12.7.25,25.41.06,38.11.06q24.5,0,23.65-25.08c-.03-.85.04-1.7-.01-2.54-.44-7.2-3.19-11.02-11.49-10.72-16.49.6-33.03.09-49.54.21-9.8.07-13.36-4.46-12.58-14.21.74-9.19.74-18.56-.17-27.73-.8-8.02,4.9-14.6,13.19-13.98,13.7,1.03,27.42,2.14,41.15,2.35,24.75.37,24.75.11,24.54-25.18,0-.42-.03-.85,0-1.27.83-10.22-3.8-14.4-14.07-14.27-26.25.34-52.52.42-78.77-.06-8.98-.16-11.71,2.9-11.62,11.73.39,36,.16,72.01.16,108.02Zm-494.41,122.07c16.67,1.45,29.22-6.85,39.58-19.31,15.53-18.69,19.16-41.21,16.92-64.09-2.1-21.43-8.34-42.37-29.21-54.05-11.89-6.66-24.55-11.95-36.93-17.73-13.25-6.2-20.62-20.45-17.19-33.54,3.2-12.2,14.67-18.9,30.05-17.27,15.28,1.62,18.29,13.72,20.45,25.58,2.14,11.7,10.51,10.18,18.36,9.92,7.62-.25,10.79-4.31,9.87-12.17-1.89-16.13-6.7-30.68-16.59-44.11-15.96-21.67-47.02-25.6-66.25-7.11-20.47,19.68-24.63,45.07-20.96,71.05,3.49,24.7,17.14,44.02,41.59,53.98,8.66,3.53,16.8,8.33,25.39,12.06,15.32,6.64,15.24,20.06,13.5,32.92-1.44,10.61-6.09,19.64-18.45,23.68-23.66,7.74-36.15-9.52-39.26-29.83-1.93-12.6-9.07-12.3-17.38-11.14-9.73,1.35-13.26,7.41-10.17,17.06,3.22,10.07,5.93,20.32,9.38,30.31,6.34,18.33,26.55,36.13,47.3,33.79Zm316.35-150.29c0-26.7.16-53.4-.19-80.09-.05-3.66-1.58-9.25-4.17-10.59-12.48-6.49-23.61.97-23.62,15.15-.03,47.89.11,95.78-.13,143.67-.04,8.22-.92,16.57-2.57,24.62-3.92,19.07-26.17,25.93-40.67,13.12-9.89-8.74-12.48-20.17-12.52-32.38-.19-50.43-.37-100.87.15-151.29.11-10.78-4.2-13.62-13.82-13.7-10.06-.08-14.82,2.5-14.67,14.17.65,48.3-.6,96.65.74,144.92.48,17.24,4.25,35.12,10.3,51.29,6.19,16.53,18.98,29.29,38.23,31.33,20.42,2.17,37.01-4.07,48.97-22.34,9.95-15.2,12.83-32.04,13.62-49.06,1.22-26.22.32-52.54.32-78.81Zm1203.13,2.3c0,26.27.13,52.55-.05,78.82-.1,13.79-8.95,27.56-19.11,30.68-10.24,3.14-24.6-1.51-30.17-12.68-4.23-8.48-6.23-18.88-6.35-28.46-.6-49.57-.44-99.16-.17-148.74.07-12.06-6.73-13.14-16.34-13.52-9.99-.39-11.98,3.79-11.92,12.77.34,50.85-.29,101.71.39,152.55.26,19.29,4.16,38.13,15.26,54.86,20.56,30.98,62.81,27.21,80.03,2.26,12.92-18.73,15.36-39.14,15.94-59.63,1.4-49.54.16-99.15.69-148.73.11-10.54-3.66-13.8-13.53-14.02-10.94-.24-14.99,4.22-14.82,15.01.42,26.27.14,52.54.14,78.82Zm-354.71,26.05c1.23,15.83,1,31.94,4.01,47.42,5.44,27.97,15.99,53.56,41.87,69.72,10.56,6.6,26.96,6.59,37.48.26,23.26-14,31-37.29,37.13-61.36,2.16-8.49-12.14-21.78-21-20.35-1.61.26-3.56,2.61-4.14,4.39-2.02,6.19-3.65,12.52-5.15,18.86-2.83,11.93-15,24-25.57,24.88-13.39,1.11-21.5-6.57-25.08-17.99-4.49-14.31-9.23-29.12-9.92-43.89-1.07-22.98-.56-46.37,2.77-69.08,1.69-11.54,8.87-24.19,17.37-32.4,14.02-13.54,39.17.77,43.02,22.99.6,3.45,3,9.71,3.35,9.62,7.38-1.77,15.02-3.47,21.57-7.07,2.19-1.2,3.06-8.18,1.85-11.57-4.05-11.38-7.86-23.28-14.41-33.26-13.5-20.57-35.31-35.18-61.55-17.94-13.51,8.87-23.45,21.51-29.69,36.56-10.63,25.65-15.28,52.34-13.93,80.21Zm-362.59-78.99c0,62.02.13,122.53-.12,183.04-.04,10.25,2.78,15.65,14.2,15.62,11.51-.03,14.07-5.64,14.03-15.79-.26-56.73-.12-113.46-.12-170.19v-12.68c5.23,0,8.99,0,12.75,0,28.61-.04,28.27-.04,28.15-29.34-.04-9.04-3.09-11.69-11.83-11.53-24.54.46-49.1.51-73.64.07-29.57-.52-26.49,1.11-26.76,27.05-.11,10.48,4.56,14.3,14.58,13.84,9.23-.43,18.49-.09,28.77-.09Zm-658.79,0c4.74,0,8.08.07,11.41-.01,34.65-.88,28.49,6.95,29.39-30.52.19-7.79-2.73-10.37-10.39-10.3-29.63.3-59.26-.25-88.87.53-4.32.11-12.25,5.91-12.07,8.66.69,10.51-6.65,23.18,6.15,31.27.64.41,1.65.38,2.47.33,6.26-.37,12.66-.08,18.73-1.36,11.6-2.45,15.18-.13,15.19,11.65.03,57.15.13,114.31-.09,171.46-.04,10.15,1.41,17,14.11,16.99,12.72,0,14.11-6.9,14.08-17.02-.21-60.06-.1-120.13-.1-181.67Zm1139.54,414.7v-95.32c0-26.9-.01-26.35-26.7-27.06-11.31-.3-14.31,3.25-14.23,14.37.48,67.35.24,134.71.24,202.07,0,28.7,0,28.37,29.25,28.26,8.96-.03,11.7-2.93,11.61-11.76-.39-36.85-.16-73.71-.16-110.57Zm30.52-335.11c0,33.45.02,66.9,0,100.36-.01,17.8,5.56,19.45,18.87,18.73,16.88-.91,33.86.05,50.79-.28,35.02-.68,28.75,6.75,29.64-30.23.18-7.51-2.19-11.05-10.14-10.49-14.99,1.07-30.04,1.43-45.02,2.7-12.28,1.04-16.85-4.11-14.11-16.79.61-2.84.48-5.88.48-8.82.03-51.66.05-103.32,0-154.98-.01-15.07-2.66-18.01-15.6-17.95-12.4.06-14.88,3.1-14.9,18.66-.04,33.03-.01,66.06-.01,99.09Z"/>
  <path class="cls-2" d="m551.32,1815.09c-1.16-32.66-9.78-61.44-39.44-81.37v120.09h-33.44v-122.72c-34.05,18.6-42.94,49.58-45.8,84.12-1.38-.29-2.76-.58-4.13-.87-2.06-3.81-4.82-7.41-6.07-11.47-8.81-28.65-10.39-57.23.65-85.9,1.14-2.95-.97-8.9-3.57-11.27-34.01-31.12-40.73-69.85-33.08-113.13.69-3.9-.95-10.06-3.79-12.45-44.45-37.34-43.51-93.91-8.06-133.26-2.67-2.39-5.06-5.26-8.08-7.11-22.14-13.64-35.68-34.02-37.76-59.06-2.41-28.97,12.23-52.08,35.94-68.01,11.59-7.79,25.13-13.22,38.49-17.57,6.07-1.98,14.08.45,20.68,2.54,2.36.75,4.79,6.65,4.32,9.76-.88,5.86-2.9,12.04-6.18,16.91-4.44,6.59-9.62,13.39-16.04,17.83-29.94,20.67-24.95,45.18-1.56,65.91,20.32,18,44.39,13.66,67.84,13.3,2.04-.03,5.71-5.83,5.74-8.97.38-45.36-.03-90.73.4-136.1.17-17.79-14.31-13.82-23.59-17.04-14.18-4.92-28.69-9.01-43.22-12.8-9.09-2.37-18.47-4.94-27.74-5.03-50.44-.49-100.88-.42-151.32-.04-8.66.07-11.28-4.07-11.03-11.14.23-6.67,1.04-14.33,10.13-14.37,41.95-.17,83.89.04,125.84.19,1.1,0,2.19.83,4.85,1.9-5.94-9.94-11.66-15.45-23.31-15.21-37.71.77-75.45.21-113.17.38-4.46.02-8.95,1.18-13.35,2.16-10.23,2.28-15.92-2.3-16.68-12.65-.67-9.08,2.02-12.83,11.93-12.71,38.99.49,77.99.2,116.99.2,2.5,0,5.01,0,8.12,0,.8-12.89-9.38-11.52-15.84-12.4-9.15-1.25-18.61-.32-27.93-.32-44.06,0-88.11,0-133.14,0-.38-3.03-.43-5.82-1.1-8.45-3.15-12.38-1.58-14.5,11.23-14.5,47.9,0,95.8.09,143.7-.04,4.49-.01,8.98-1.31,13.47-2.01.2-1.94.41-3.87.61-5.81-5.65-1.6-11.29-4.57-16.95-4.6-62.71-.33-125.42-.21-188.56-.21-1-2.87-2.03-5.45-2.79-8.11-2.89-10.17.45-14.79,11.12-14.8,62.31-.05,124.62,0,186.93.02,23.73,0,47.45,0,72.07,0,8.95,22.58,22.5,42,44.05,54.22,11.65,6.61,24.07,12.1,36.66,16.67,6.55,2.38,12.33.05,12.01-9.41-.5-14.82.7-29.75-.57-44.48-.46-5.3-5.3-10.81-9.32-15.12-15.46-16.52-15.16-42.79,1.17-58.11,10.68-10.01,35.51-10.69,49-1.34,11.31,7.84,17.22,30.88,10.45,44.15-3.21,6.29-8.93,11.27-12.58,17.39-3.25,5.46-6.87,11.54-7.41,17.61-1.13,12.62-.64,25.42-.25,38.13.33,11.13,4.5,13.94,15.25,10.16,32.77-11.54,60.81-28.51,74.4-63.15,1.41-3.6,9.57-6.43,14.62-6.46,81.38-.4,162.77-.29,244.16-.28,15.84,0,17.61,2.51,12.79,17.73-.46,1.45-.38,3.07-.62,5.18-62.14,0-123.56-.12-184.99.2-5.41.03-10.81,2.93-16.21,4.49.15,1.86.3,3.72.45,5.57,4.37.82,8.74,2.33,13.11,2.35,45.35.15,90.71-.05,136.06.14,7.18.03,16.96-3.69,16.67,10.37-.25,12-6.73,12.72-16.22,12.65-47.47-.34-94.95-.14-142.42-.17-8.26,0-15.8.83-17.67,12.74,32.24,0,63.47,0,94.69,0,9.33,0,18.68.44,27.97-.13,9.11-.56,10.3,4.2,10.37,11.71.08,7.83-1.86,11.55-10.64,11.48-42.39-.34-84.78.29-127.16-.46-11.56-.21-17.51,5.05-22.52,13.02h19.78c34.33,0,68.68.38,103-.21,11.34-.2,11.48,6.19,12.06,14.25.66,9.07-3.03,11.66-11.78,11.57-37.72-.37-75.48.84-113.16-.48-29.11-1.02-56.69,2.42-83.71,13.82-10.73,4.52-23.22,5.65-35.04,6.54-8.26.62-10.98,3.07-10.93,11.29.28,46.21.3,92.43,0,138.64-.06,8.53,3.17,11.22,11.27,10.79,9.3-.49,18.64-.11,27.97-.11,19.86,0,46.78-20.32,51.89-39.18,3.35-12.35-4.86-31.79-17.59-39.64-16.91-10.44-23.39-26.67-29.25-47.49,17.45.87,34.21-2.67,46.34,3.26,22.87,11.18,44.31,27.3,52,53.7,3.4,11.68,4.1,25.23,1.87,37.16-2.16,11.55-8.02,23.34-15.22,32.76-7.65,10.02-18.78,17.39-28.96,26.43,14.73,17.09,24.54,37.24,24.45,61.23-.1,23.75-7.63,45.91-24.82,61.27-12.04,10.76-9.55,20.97-7.65,32.34,6.91,41.49-5.67,76.3-36.51,103.91-6.75,6.04-7.83,9.16-5,17.19,9.91,28.15,6.51,56.29-2.41,84.07-.59,1.84-2.47,3.27-3.74,4.89-1.49.45-2.98.91-4.48,1.36Zm-73.08-306.45c0-12.28-.08-24.56.03-36.83.07-7.94-3.55-10.24-11.4-9.77-12.64.75-25.36-.06-38.03.3-4.32.12-9.7.5-12.7,3.01-13.31,11.15-18.2,36.63-11.91,52.69,9.38,23.95,26.13,37.61,51.77,41.55,15.95,2.45,22.11-1.59,22.24-17.94.08-11.01.02-22.01.01-33.02Zm33.07,1.92c0,11.83-.03,23.66,0,35.49.04,11.29,8.14,17.77,19.07,15.22,1.98-.46,3.8-1.68,5.78-2,35.39-5.63,58.12-42.92,46.44-76.3-5.65-16.16-12.3-20.76-28.51-20.5-9.69.15-19.84,1.45-28.96-.95-11.5-3.02-13.61,2.17-13.78,11-.24,12.67-.06,25.35-.06,38.02Zm-33.07,137.74v-13.97c0-29.42,0-29.69-29.28-29.06-5.22.11-12.7,1.91-15.18,5.59-20.31,30.25-4.21,68.53,26.64,80.38,12.11,4.65,17.78-.34,17.81-13.72.02-9.74,0-19.48,0-29.21Zm33.07.11c0,10.15-.05,20.3.01,30.46.09,13.35,6.26,16.62,18.39,9.98,16.18-8.86,27.51-22.83,28.99-40.4,1.06-12.65-3.47-26.98-9.54-38.43-2.44-4.61-15.64-3.55-23.96-4.96-1.64-.28-3.96-.74-4.96.09-3.23,2.7-8.21,5.75-8.51,9.04-1.05,11.32-.4,22.8-.41,34.23Zm-98.85-331.64c-5.04-3.92-9.31-9.19-11.39-8.44-3.75,1.36-8.03,6.08-8.55,9.88-.36,2.61,5.66,8.8,8.12,8.45,3.71-.53,6.8-5.38,11.82-9.89Zm178.93-9.16c-1.48-.19-2.96-.39-4.43-.58-2.27,3.79-6.12,7.53-6.26,11.4-.09,2.73,4.45,7.06,7.69,7.99,2.3.66,8.62-3.56,8.42-4.89-.73-4.8-3.45-9.3-5.42-13.91Z"/>
  <path class="cls-6" d="m1405.25,1329.81c9.34,7.36,29.92,7.32,37.19,1.95,22.72-16.76,45.27-33.81,68.77-49.42,17.33-11.51,32.73-3.59,32.11,16.94-1.03,34.34-4.39,68.61-6.51,102.93-.18,2.89,1.64,5.9,2.52,8.85,3.36-1.06,6.98-1.63,10.02-3.27,21.96-11.81,25.61-33.55,30.64-55.12,4.77-20.45,10.81-40.73,18.22-60.36,1.95-5.17,12.21-11.68,16.57-10.42,6.52,1.9,12.9,9.33,16.06,15.96,2.12,4.45-.93,11.75-2.58,17.51-2.95,10.3-6.9,20.32-9.75,30.65-.82,2.97.7,6.59,1.33,11.31,17.15-10.7,33.25-19.3,47.63-30.18,11.5-8.71,17.79-2.57,24.29,5.07,6.68,7.86,5.4,18.33-3.76,25.08-11.64,8.58-24.14,16.01-36.27,23.93-14.23,9.3-28.93,17.98-42.39,28.28-4.09,3.13-6.27,10.62-6.74,16.32-3.02,36.36-6.59,72.75-7.44,109.19-.61,25.93,2.93,51.95,4.18,77.95.27,5.65.53,13.04-2.61,16.69-4.31,5.02-12.3,10.46-17.92,9.71-5.3-.71-12.75-8.63-13.76-14.35-7.64-43.11-10.38-86.58-5.93-130.36,1.56-15.38,1.66-30.92,2.42-46.38-9.38-.27-29.43,15.08-30.46,23.79-1.91,16.17-3.3,32.41-5.06,48.6-5.13,47.17-7.7,94.56-19.91,140.9-11.18,42.45-40.99,50.61-74.18,43.34-13.96-3.06-27.13-19.22-36.38-32.42-27.12-38.69-21.66-78.95.09-118.15,23.12-41.67,57.9-72.8,94.14-102.59,3.88-3.19,7.68-8.62,8.22-13.38,2.46-21.66,3.81-43.44,5.42-65.19.92-12.45,1.56-24.92,2.44-39.32-4.84,1.63-9.03,2.07-12,4.22-8.44,6.09-16.02,13.4-24.63,19.21-7.18,4.85-7.26,9.66-5.38,17.68,3.97,16.9,7.82,34.26,8.17,51.51.7,33.98-39.39,70.07-72.77,65.85-20.7-2.62-34.55-16.73-42.86-35.12-9.55-21.14-9.66-42.34,6.59-60.79,6.21-7.06,14.23-12.52,21.42-18.71-.47-1.39-.94-2.78-1.42-4.18-4.74.68-9.81.54-14.17,2.22-9.96,3.84-19.81,8.14-29.19,13.21-3.15,1.71-6.38,6.15-6.75,9.64-2.29,21.66-3.61,43.42-5.57,65.12-3.13,34.59-6.47,69.16-9.8,103.73-2.57,26.65-5.1,53.31-7.97,79.93-2.34,21.59-5.5,43.1-7.55,64.71-.52,5.45-.13,13.41,3.23,16.38,14.62,12.92,30.26,24.74,46.17,36.06,2.24,1.59,8.98-.64,12.02-3.11,22.64-18.31,47.75-31.59,76.55-36.16,31-4.91,55.11,11.21,78.29,28.67,5.31,4,11.06,8.03,14.85,13.3,24.01,33.49,7.8,78.23-31.65,92.31-30.73,10.97-58.37,2.39-85.19-10.55-16.98-8.2-32.17-20.03-48.57-29.54-2.97-1.73-7.89-.11-11.91-.04.62,4.32.28,9.12,2.15,12.79,1.52,2.98,5.74,4.54,8.68,6.84,23.85,18.7,29.91,45.61,34.99,73.5,7.95,43.6-13.02,70.94-48.8,90.2-15.39,8.29-28.41,3.81-45.16-10.46-24.3-20.69-29.89-48.93-23.9-78.87,4.44-22.16,12.1-43.68,18.34-65.48,2.85-9.94-4.05-18.75-19.23-23.91-8.49-2.88-12.97,1.31-16.43,8.98-15.54,34.45-38.24,62.55-70.43,83.48-19.55,12.71-38.27,10.49-56.72,1.69-43.81-20.9-41.01-65.74-6.87-96.62,30.16-27.27,65.42-43.65,106.29-45.68,13.25-.66,16.52-10.06,19.47-18.78,2.68-7.91,3.74-16.83-4.39-24.36-24.04-22.25-46.53-45.66-59.39-76.89-22.01-53.4-29.55-107.44-2.7-160.68,12.4-24.59,29.65-47.19,47.34-68.5,15.1-18.2,33.9-33.33,51.2-49.69,4.83-4.57,12.78-31.93,9.12-37.37-2.34-3.48-7.66-6.22-12.01-6.89-30.4-4.67-61.02-7.96-91.32-13.17-35.35-6.07-75.14-48.77-68.79-91.67,3.7-25.01,18.28-43.6,38.47-57.77,35.35-24.8,76.84-32.91,117.62-43.53,35.11-9.14,69.43-21.27,104.15-31.91,40.64-12.45,78.36-30.86,112.01-56.8,13.61-10.49,25.76-23.02,37.76-35.41,9.78-10.09,15.81-11.85,26-4.73,7.57,5.28,8.51,17.3,2.3,27.05-16.16,25.36-40.28,42.2-64.7,57.97-40.02,25.85-83.79,43.9-129.76,56.48-41.4,11.33-83.08,21.69-124.14,34.13-25.6,7.75-50.76,17.2-70.8,36.78-23.16,22.62-12.23,43.99,6.3,61.75,13.96,13.38,32.36,15.63,50.53,17.9,19.83,2.48,39.66,5.03,59.49,7.57,10.28,1.32,10.85-6.25,12.77-13.27,4.99-18.19,8.31-37.24,16.18-54.14,12.25-26.35,41.26-39.05,70.42-34.43,8.22,1.3,16.6,1.95,24.65,3.94,16.08,3.98,25.28,14.56,31.09,30.27,9.24,24.99,2.93,67.35-15.3,83-7.7,6.61-17.29,11.01-27.06,17.05Zm-194.77,241.6c4.52,38.58,14.2,77.16,42.86,108.3,3.32,3.61,7.74,6.21,11.66,9.28,1.49-5.36,3.76-10.64,4.35-16.1,2.17-19.95,3.57-39.98,5.64-59.95,4.03-38.99,8.3-77.95,12.49-116.92,2.01-18.68,4.19-37.33,5.95-56.03.31-3.24-1.09-6.65-1.7-9.98-3.57,1.27-8.46,1.47-10.5,3.98-16.14,19.88-32.8,39.48-47.21,60.59-15.16,22.22-22.06,47.85-23.54,76.82Zm280.31-64.98c-.99-.88-1.98-1.77-2.97-2.65-4.09,3.34-8.89,6.11-12.16,10.13-17.1,20.99-36.32,40.81-50.06,63.85-19.52,32.73-13.61,64.3,11.22,87.28,5.57,5.15,10.78,6.93,18.99,4.33,17.69-5.62,17.05-20.95,19.43-34.06,4.16-22.92,7-46.11,9.77-69.26,2.37-19.82,3.88-39.74,5.77-59.62Zm-100.95,281.01c2.96,3.36,4.64,6.71,7.34,8.1,20.44,10.56,40.34,22.79,61.85,30.43,19.81,7.03,38.92-1.73,46.88-17.34,2.16-4.25,3.32-13.22,1.16-14.78-15.51-11.22-30.79-25.42-48.46-30.34-25.78-7.19-46.98,10-68.76,23.93Zm26.56-531.46c-2.49-6.35-3.2-14.88-7.8-18.67-15.78-12.97-44.57-7.83-54.85,10.54-6.66,11.91-9.82,26.01-13.13,39.48-1.94,7.88,2.84,13.31,11.5,12.46,10.3-1.01,20.54-2.72,30.74-4.54,30.9-5.51,30.03-15.41,33.55-39.28Zm-78.86,608.46c-15.94,16.76-24.22,72.47-12.43,90.95,3.21,5.03,13.33,11.69,15.58,10.25,8.72-5.59,18.53-12.82,22.51-21.84,10.89-24.66-2.97-63.9-25.67-79.35Zm-193.16,4.37c-.23,11.92,16.99,24.59,26.17,19.75,28.27-14.9,47.07-38.87,61.01-67.03,3.82-7.72-1.42-9.93-6.74-7.65-19.53,8.35-39.45,16.33-57.54,27.25-10.31,6.23-21.38,14.83-22.9,27.67Zm264.43-413.57c1.22-.34,3.67-.78,5.92-1.72,18.03-7.53,28.52-40.71,17.42-56.61-1.45-2.08-8.05-3.28-10-1.84-10.69,7.93-21.46,16.08-30.5,25.74-3.43,3.67-4.29,12.1-2.86,17.44,2.36,8.79,7.66,16.68,20.02,16.98Zm-78.63,342.64c-3.44-4.25-4.27-5.74-5.51-6.75-8.33-6.77-16.54-13.74-25.32-19.89-1.68-1.18-6.89.03-8.49,1.86-6.46,7.38-1.32,12.89,4.55,17.06,5.59,3.98,11.6,8.01,18.05,9.95,4.22,1.27,9.55-1.12,16.73-2.24Zm30.83-461.48c-6.94-1.51-11.93-4-16.18-3.08-3.58.78-6.54,5.34-9.2,8.68-.55.7,1.36,4.89,2.25,4.94,3.82.18,8.05.24,11.45-1.24,3.54-1.54,6.31-4.88,11.68-9.3Z"/>
  <path class="cls-5" d="m1712.41,1520.21c1.66-41.63,2.77-83.3,5.2-124.89,1.29-22.05,3.28-44.33,8.24-65.75,1.92-8.29,11.79-16.78,20.14-20.86,6.41-3.13,17.4,12.28,16.41,23.23-2.96,32.87-7.69,65.61-9.72,98.52-2.16,34.93-1.81,70.01-3.11,105-.23,6.17-1.57,13.68-5.35,17.93-3.64,4.09-13.37,8.23-16.45,6.23-6.56-4.26-12.04-11.87-15.1-19.28-2.39-5.79-.48-13.36-.48-20.13.08,0,.16,0,.23,0Z"/>
  <path class="cls-4" d="m1726.85,1600.04c13.03-.08,25.34,12.17,25.34,25.21,0,11.43-14.98,25.68-26.61,25.3-11.2-.37-23.7-14.61-23.39-26.68.28-11.28,13.2-23.76,24.66-23.83Z"/>
  <path class="cls-3" d="m278.71,527.11c-2.17,2.66-5.69,5.04-6.32,8.03-9.62,45.73-18.77,91.55-28.28,137.3-1.31,6.31-3.95,12.35-6.2,19.21-4.39,0-9.01,0-13.63,0-25.13,0-26.94-2.66-31.17-27.77-5.3-31.51-12.51-62.7-18.63-94.07-1.81-9.3-2.31-18.86-4.17-28.15-1.23-6.14-1.85-13.9-12.57-12.37,0,45.32.08,90.6-.03,135.89-.08,32.82,3.75,25.39-28.28,26.25-7.39.2-9.59-3.01-9.55-9.86.1-20.34-.26-40.68-.28-61.02-.05-53.4.21-106.8-.22-160.2-.08-9.9,2.48-13.81,12.84-13.13,12.66.82,25.41.32,38.12.15,7.34-.1,11.26,2.54,13,10.32,8.94,39.92,18.51,79.7,27.67,119.58,1.38,6,1.36,12.33,2.89,18.27.68,2.65,3.61,4.71,5.53,7.04,2.33-2.34,6.13-4.33,6.75-7.06,7.13-31.13,13.78-62.36,20.57-93.57,3.39-15.6,6.42-31.3,10.5-46.72.83-3.14,5.5-7.29,8.59-7.45,15.22-.77,30.5-.07,45.74-.45,10.2-.26,8.96,6.5,8.96,12.89,0,65.69,0,131.38,0,197.07,0,8.48.84,17.08-.41,25.37-.51,3.36-5.57,8.6-8.57,8.62-35.9.15-28.8,4.82-29.07-26.5-.39-44.88-.1-89.76-.1-134.64-1.22-1-2.45-2-3.67-3Z"/>
  <path class="cls-3" d="m1373.04,691.64c-13.46,0-26.93.27-40.38-.24-2.52-.09-5.88-2.71-7.24-5.08-12.38-21.63-23.92-43.76-36.69-65.16-10.25-17.17-21.04-34.34-45.77-31.47-8.56,1-12.22,3.55-12.03,12.95.59,29.16.22,58.35.22,89-11.35,0-22.2.03-33.05,0-9.58-.03-7.6-7.21-7.61-12.8-.07-66.51-.04-133.03-.04-199.54,0-7.63-.91-15.41.4-22.81.61-3.42,5.49-8.63,8.52-8.69,33.87-.62,67.8-1.36,101.64-.16,48.96,1.73,66.48,52.37,57.62,85.4-6.34,23.63-19.48,40.28-43.27,47.85-7.03,2.24-7.25,7.22-3.06,12.33,9.27,11.32,20.2,21.54,27.94,33.8,12.19,19.3,22.34,39.89,33.23,60,.49.91-.19,2.46-.43,4.62Zm-139.35-200.61c0,17.03.35,32.23-.14,47.41-.27,8.4,2.89,11.39,11.08,10.82,16.23-1.13,32.54-1.36,48.74-2.79,12.24-1.08,20.95-10.33,21.71-21.36,1.34-19.49-3.64-32.41-16.61-33.57-21.24-1.89-42.77-.51-64.79-.51Z"/>
  <path class="cls-3" d="m742.26,691.64c-8.88,0-15.05-1.14-20.62.2-21.76,5.22-30.87-8.41-39.78-24.35-12.16-21.74-25.15-43.04-38.33-64.18-6.61-10.6-28.11-17.85-38.37-12.98-2.64,1.25-4.56,6.71-4.61,10.27-.38,26.26-.55,52.54-.02,78.8.19,9.36-2.64,12.51-12.22,12.46-28.65-.14-28.66.24-28.66-28.88,0-67.36.21-134.73-.22-202.09-.07-10.54,2.76-13.97,13.57-13.73,30.91.69,61.86-.46,92.75.43,36.02,1.04,55.6,23.36,61.89,57.05,3.77,20.18-.96,38.61-13.23,53.84-7.27,9.03-18.78,14.85-28.92,21.27-6.54,4.14-9.9,8.5-3.25,14.27,24.8,21.56,36.3,51.57,51.28,79.38,2.89,5.38,5.31,11.01,8.76,18.24Zm-139.38-200.99c0,17.28-.41,33.66.38,49.99.14,2.9,5.35,8.06,8.01,7.93,17.28-.84,34.54-2.53,51.73-4.58,13.37-1.6,21.36-11.68,21.28-25.45-.09-14.14-10.84-27.41-23.6-27.75-18.89-.5-37.81-.13-57.78-.13Z"/>
  <path class="cls-3" d="m404.47,544.08c30.71,0,60.28.41,89.84-.22,10.64-.23,15.06,2.08,14.73,13.89-.76,27.02-.15,27.03-26.78,27.03-22.46,0-44.93.21-67.38-.12-7.54-.11-10.76,2.27-10.53,10.19.43,14.82.54,29.69-.03,44.5-.34,8.86,2.64,11.88,11.62,11.74,30.08-.45,60.18.16,90.27-.34,11.58-.19,15.74,4.28,15.42,15.68-.81,29.35,3.73,25-24.67,25.15-40.26.2-80.53-.18-120.78.23-9.17.09-12.64-2.29-12.59-12.07.35-73.33.33-146.67.02-220.01-.04-9.24,2.42-12.63,12.13-12.53,42.8.45,85.61.43,128.41.01,9.36-.09,12.51,2.64,12.46,12.23-.14,28.65.24,28.66-28.91,28.66-23.73,0-47.48.4-71.2-.19-9.65-.24-12.63,3.12-12.19,12.47.65,13.95.17,27.94.17,43.69Z"/>
  <path class="cls-3" d="m1768.7,693.65c-27.35,4.18-50.33-4.9-66.2-26.31-8.87-11.97-12.74-27.71-18.43-41.93-.99-2.47-.52-8.1.43-8.38,9.23-2.74,18.62-5.44,28.14-6.33,2.92-.27,7.5,4.46,9.37,7.95,6.35,11.82,9.3,26.51,23.82,31.49,16.91,5.79,34.37,6.63,50.71-2.07,14.12-7.52,14.04-21.8,11.3-34.3-1.38-6.29-9.21-13.22-15.75-15.95-19.09-7.95-39.29-13.22-58.52-20.88-21.04-8.37-34.82-24.9-41.68-45.93-6.45-19.76-2.41-38.94,9.28-56.36,16.5-24.57,49.32-35.93,80.29-30.09,34.49,6.51,54.18,26.89,62.14,60.05,2.11,8.79.69,15.32-10.81,14.08-3.77-.41-7.66-.39-11.43,0-11.12,1.14-18.05-.95-21.64-14.11-3.19-11.69-12.97-20.42-27.38-18.99-11.72,1.16-24.33-3.74-34.82,5.99-14.26,13.24-10.78,33.28,7.43,39.68,19.92,7,40.26,12.9,59.88,20.65,23.9,9.44,39.19,27.29,44.34,52.73,6.62,32.66-4.47,58.97-30.98,78.44-14.64,10.76-31.77,13.5-49.48,10.57Z"/>
  <path class="cls-3" d="m1020.03,536.45c0,24.57-.75,49.18.37,73.71.45,9.87,3.32,20.46,8.02,29.13,10.63,19.62,30.37,14.37,47.41,13.88,12.12-.34,20.98-8.85,23.73-20.01,3.14-12.75,4.08-26.27,4.22-39.48.48-44.48.46-88.98-.03-133.46-.11-10.06,2.78-13.2,12.95-13.05,27.95.4,27.96-.04,27.96,28.32,0,43.64.66,87.3-.3,130.92-.44,19.94-2.14,40.29-14.12,57.76-12.32,17.97-28.24,30.7-50.97,29.74-17.75-.75-35.58,3.76-53.39-4.52-25.59-11.9-42.25-30.85-43.48-58.2-2.61-57.75-2.15-115.64-3.18-173.46-.14-7.62,2.4-10.63,10.24-10.44,37.42.91,29.84-5.3,30.49,29.42.37,19.91.07,39.83.07,59.74Z"/>
  <path class="cls-3" d="m1645.75,538.7c0,25.86.78,51.74-.19,77.56-1.24,32.94-12.98,60.28-45.67,74.09-4.81,2.03-10.35,4-15.35,3.59-19.39-1.59-39.01,4.19-58.32-4.47-21.46-9.63-42.73-37.48-43.19-61.55-1.07-55.74-1.5-111.5-2.84-167.23-.26-10.93,3.34-13.72,13.78-13.52,27.13.52,27.14.08,27.14,26.62,0,39-.43,78,.23,116.99.23,13.54,2.1,27.28,5.13,40.49,3.26,14.23,14.73,22.13,29.02,22.14,9.64,0,20.09,1.64,28.76-1.45,16.03-5.71,20.46-20.88,20.61-36.19.51-51.71.51-103.43-.06-155.14-.12-11,3.51-13.65,13.86-13.45,27.08.51,27.09.08,27.09,26.66v64.85Z"/>
  <path class="cls-3" d="m1737.32,232.51c0-35.58.22-71.16-.16-106.74-.09-8.69,2.38-12.15,11.5-11.84,17.34.59,34.73.52,52.08.08,18.13-.46,31.16,7.55,38.25,23.63,11.99,27.19,12.01,53.93-4.71,79.96-2.36,3.67-1.45,12.88,1.58,16.03,18.96,19.69,21.95,42.68,15.93,67.74-2.62,10.91-5.29,22.26-10.6,31.95-7.45,13.6-21.08,19.38-36.31,19.81-17.77.51-35.57-.17-53.35.23-10.19.23-14.41-3.81-14.32-14.13.29-35.58.11-71.16.11-106.74Zm30.52,48.48c.32.04.63.09.95.13-1,6.49-3.63,13.29-2.45,19.35.88,4.52,6.42,11.13,10.37,11.48,10.17.92,20.7-.56,30.89-2.26,3.96-.66,9.15-3.66,10.76-7.03,6.2-12.92,8.66-25.94.79-39.96-6.78-12.09-17.15-11.09-27.84-11.21-2.96-.03-5.92,0-8.88,0-15.98,0-15.89,0-14.63,15.54.37,4.62.06,9.3.06,13.95Zm50.84-99.09c.28-10.26-.3-21.6-12.04-24.04-10.95-2.28-22.76-.87-34.14-.15-2.1.13-5.39,4.62-5.6,7.29-.8,10.25-.15,20.61-.85,30.88-.53,7.83,4.92,13.6,12.58,12.28,5.64-.97,11.31-2.21,16.99-2.36,16.21-.42,23.05-7.27,23.05-23.9Z"/>
  <path class="cls-3" d="m904.6,523.44c-8.19-11.1-13.32-23.78-22.72-29.75-36.53-23.23-70.73-.36-74.95,36.4-2.97,25.91-2.86,52.69-.02,78.63,3.95,36.1,32.22,56.47,67.62,41.71,16.61-6.93,22.23-24.38,25.95-41.3.25-1.15.53-2.3,1.32-5.66,11.55,4.04,22.76,7.44,33.4,12.12,2.2.97,4.07,7.33,3.09,10.15-9.9,28.46-22.44,56-54.37,65.01-28.23,7.96-56.32,7.32-80.6-13.49-30.13-25.82-41.38-59.59-42.79-97.9-1.12-30.26,3.1-59.26,17.81-86.27,16.17-29.69,41.31-46.66,74.37-50.54,35.73-4.2,78.84,28.03,85.48,62.89.55,2.91-3.04,8.64-5.99,9.8-9.41,3.71-19.43,5.89-27.61,8.2Z"/>
  <path class="cls-3" d="m506.22,232.39c0-35.6.24-71.21-.17-106.81-.1-8.96,2.84-12.09,11.73-11.62,11.41.6,22.92.8,34.31.03,37.06-2.53,51,16.64,60.62,44.84,14.25,41.77,14.36,84.75,5.63,127.92-3.45,17.04-8.24,32.94-19.5,46.96-10.01,12.47-22.57,18.4-37.61,19.37-13.5.87-27.11-.08-40.67.27-10.09.26-14.89-2.44-14.63-14.16.79-35.59.29-71.2.29-106.8Zm30.52-.01c0,18.61-.17,37.23.08,55.83.1,7.43-1.03,16.26,2.56,21.72,1.96,2.98,12.61.24,19.35.08.85-.02,1.69-.02,2.54,0,12.69.22,19.53-6.51,24.05-18.03,11.25-28.7,7.19-58.54,6.83-87.92-.14-11.29-5.5-22.79-9.74-33.7-6.43-16.56-21.64-11.41-34.42-13.45-9.53-1.53-11.49.85-11.35,9.49.34,21.99.11,43.99.11,65.98Z"/>
  <path class="cls-3" d="m1269.3,259.38c0-46.72.15-89.08-.12-131.43-.06-8.69.32-14.68,11.83-14.11,10.43.52,13.88,4.75,13.85,14.77-.22,69.93-.18,139.86-.02,209.79.02,6.89-.77,14-8.4,14.39-6.87.35-16.19,5.16-20.46-6.24-6.12-16.32-13.49-32.17-19.44-48.55-9.74-26.78-18.61-53.88-28.35-80.66-.85-2.34-5.4-3.33-9.92-5.9,0,44.43-.16,85.91.12,127.4.07,10.03-3.66,16.29-13.8,13.97-4.52-1.04-11.22-7.17-11.25-11.04-.67-72.89-.57-145.79-.22-218.69.01-2.99,3.64-8.11,6.21-8.54,9.26-1.58,19.64-1.66,23.63,9.06,8.36,22.48,15.6,45.38,23.32,68.1,6.8,20.03,13.31,40.17,20.76,59.96,1.13,3,6.66,4.34,12.29,7.73Z"/>
  <path class="cls-3" d="m869.95,254.97c0-42.35.16-84.7-.13-127.05-.06-8.72.38-14.65,11.85-14.09,10.45.51,13.86,4.78,13.83,14.78-.22,69.07-.13,138.14-.1,207.21,0,7.61,1.22,15.97-9.55,17.37-10.1,1.31-19.09.23-23.19-11.45-10.12-28.81-20.67-57.47-30.8-86.28-3.78-10.74-6.25-21.98-10.62-32.45-1.93-4.63-7.1-7.9-10.8-11.79-1.62.87-3.24,1.74-4.85,2.61,1.1,9.7,3.03,19.39,3.15,29.1.4,32.62.43,65.26-.06,97.88-.1,6.54-2.59,13.01-12.02,12.6-8.74-.38-13.48-2.24-13.41-12.82.44-70.34.15-140.68.38-211.02.02-5.53-3.77-13.89,6.13-15.3,9.8-1.4,19.35-1.18,23.54,10.75,6.87,19.59,14.25,39,20.97,58.63,7.39,21.57,13.91,43.44,21.71,64.86,1.49,4.09,7.13,6.66,10.85,9.93,1.05-1.16,2.09-2.31,3.14-3.47Z"/>
  <path class="cls-3" d="m1075.99,154.82c0,15.78-.52,30.55.44,45.22.19,2.93,5.95,7.67,9.32,7.84,16.48.82,33.04.71,49.55.23,8.42-.24,12.33,1.86,12.07,11.26-.9,32.39,4.08,26.5-26.65,27.01-11.44.19-22.89.33-34.32-.08-7.53-.27-10.76,2.23-10.55,10.17.42,16.09.59,32.22-.04,48.31-.4,10.26,5.22,10.72,12.83,10.31,18.83-1,37.67-1.71,56.51-2.49,1.23-.05,2.82-.06,3.68.61,11.3,8.84,4.83,21.21,5.26,31.91.1,2.54-8.36,7.64-12.99,7.77-26.67.75-53.38.26-80.07.43-8.88.06-13.11-3.56-13.09-12.72.11-72.05.16-144.1-.08-216.15-.03-8.04,4.3-10.22,10.57-10.26,28.39-.2,56.78-.1,85.17-.06,1.66,0,4.71.19,4.77.61,1.5,10.89,3.47,21.84,3.33,32.75-.03,2.49-7.46,6.84-11.6,6.99-20.73.72-41.51.33-64.11.33Z"/>
  <path class="cls-3" d="m651.2,233.69c0-36.01.23-72.01-.16-108.02-.1-8.83,2.64-11.9,11.62-11.73,26.25.48,52.51.4,78.77.06,10.28-.13,14.91,4.05,14.07,14.27-.03.42,0,.85,0,1.27.21,25.28.2,25.55-24.54,25.18-13.73-.21-27.45-1.33-41.15-2.35-8.3-.62-13.99,5.95-13.19,13.98.91,9.17.91,18.54.17,27.73-.78,9.75,2.77,14.28,12.58,14.21,16.52-.12,33.05.39,49.54-.21,8.3-.3,11.05,3.53,11.49,10.72.05.84-.01,1.69.01,2.54q.85,25.08-23.65,25.08c-12.7,0-25.41.19-38.11-.06-9.99-.2-11.52,6.53-11.71,13.97-.33,13.04.48,26.13-.4,39.11-.66,9.8,5.92,16.52,15.49,15.78,18.77-1.44,37.61-2.16,56.43-2.3,3.11-.02,8.59,4.16,8.95,6.92,1.13,8.72,1.23,17.83-.18,26.48-.46,2.81-6.74,6.57-10.42,6.64-27.94.56-55.9.27-83.85.33-8.76.02-12.1-3.54-11.96-12.85.53-35.57.21-71.16.21-106.74Z"/>
  <path class="cls-3" d="m156.8,355.76c-20.74,2.34-40.96-15.47-47.3-33.79-3.45-9.99-6.16-20.23-9.38-30.31-3.09-9.66.44-15.71,10.17-17.06,8.32-1.16,15.46-1.46,17.38,11.14,3.11,20.31,15.6,37.57,39.26,29.83,12.36-4.05,17.02-13.07,18.45-23.68,1.74-12.87,1.81-26.28-13.5-32.92-8.59-3.72-16.72-8.53-25.39-12.06-24.45-9.96-38.1-29.28-41.59-53.98-3.67-25.98.49-51.37,20.96-71.05,19.23-18.5,50.28-14.57,66.25,7.11,9.89,13.43,14.7,27.98,16.59,44.11.92,7.87-2.25,11.92-9.87,12.17-7.85.26-16.22,1.78-18.36-9.92-2.16-11.86-5.17-23.96-20.45-25.58-15.39-1.63-26.85,5.07-30.05,17.27-3.44,13.09,3.94,27.34,17.19,33.54,12.37,5.78,25.04,11.07,36.93,17.73,20.87,11.68,27.11,32.63,29.21,54.05,2.24,22.88-1.38,45.41-16.92,64.09-10.36,12.46-22.91,20.76-39.58,19.31Z"/>
  <path class="cls-3" d="m473.15,205.46c0,26.28.9,52.59-.32,78.81-.79,17.03-3.67,33.87-13.62,49.06-11.96,18.27-28.55,24.5-48.97,22.34-19.25-2.04-32.04-14.8-38.23-31.33-6.05-16.17-9.83-34.04-10.3-51.29-1.34-48.28-.09-96.62-.74-144.92-.16-11.67,4.61-14.25,14.67-14.17,9.62.08,13.93,2.92,13.82,13.7-.52,50.43-.34,100.86-.15,151.29.05,12.2,2.63,23.64,12.52,32.38,14.49,12.81,36.75,5.95,40.67-13.12,1.65-8.05,2.53-16.4,2.57-24.62.23-47.89.1-95.78.13-143.67,0-14.17,11.14-21.63,23.62-15.15,2.59,1.34,4.12,6.93,4.17,10.59.34,26.69.19,53.4.19,80.09Z"/>
  <path class="cls-3" d="m1676.28,207.76c0-26.27.29-52.55-.14-78.82-.17-10.8,3.88-15.25,14.82-15.01,9.87.22,13.65,3.47,13.53,14.02-.52,49.57.71,99.18-.69,148.73-.58,20.49-3.02,40.9-15.94,59.63-17.22,24.95-59.47,28.72-80.03-2.26-11.1-16.72-15.01-35.57-15.26-54.86-.68-50.84-.06-101.7-.39-152.55-.06-8.99,1.92-13.16,11.92-12.77,9.61.37,16.4,1.45,16.34,13.52-.27,49.58-.44,99.16.17,148.74.12,9.58,2.12,19.98,6.35,28.46,5.57,11.16,19.93,15.82,30.17,12.68,10.16-3.12,19.01-16.88,19.11-30.68.19-26.27.05-52.55.05-78.82Z"/>
  <path class="cls-3" d="m1321.57,233.81c-1.35-27.87,3.3-54.56,13.93-80.21,6.24-15.05,16.18-27.69,29.69-36.56,26.24-17.24,48.05-2.63,61.55,17.94,6.54,9.97,10.36,21.87,14.41,33.26,1.21,3.39.33,10.37-1.85,11.57-6.55,3.6-14.19,5.3-21.57,7.07-.36.09-2.76-6.17-3.35-9.62-3.84-22.22-29-36.54-43.02-22.99-8.5,8.21-15.68,20.85-17.37,32.4-3.33,22.71-3.84,46.1-2.77,69.08.69,14.78,5.43,29.59,9.92,43.89,3.58,11.42,11.69,19.11,25.08,17.99,10.57-.88,22.74-12.95,25.57-24.88,1.51-6.34,3.14-12.67,5.15-18.86.58-1.78,2.53-4.13,4.14-4.39,8.86-1.43,23.16,11.86,21,20.35-6.14,24.07-13.87,47.36-37.13,61.36-10.52,6.33-26.92,6.34-37.48-.26-25.87-16.16-36.42-41.75-41.87-69.72-3.01-15.48-2.78-31.59-4.01-47.42Z"/>
  <path class="cls-3" d="m958.98,154.82c-10.28,0-19.54-.34-28.77.09-10.02.47-14.69-3.36-14.58-13.84.27-25.93-2.82-27.57,26.76-27.05,24.54.44,49.1.39,73.64-.07,8.74-.16,11.79,2.49,11.83,11.53.12,29.3.46,29.3-28.15,29.34-3.76,0-7.52,0-12.75,0v12.68c0,56.73-.13,113.46.12,170.19.05,10.15-2.52,15.76-14.03,15.79-11.42.03-14.24-5.37-14.2-15.62.25-60.51.12-121.02.12-183.04Z"/>
  <path class="cls-3" d="m300.19,154.82c0,61.55-.11,121.61.1,181.67.04,10.12-1.35,17.02-14.08,17.02-12.7,0-14.15-6.85-14.11-16.99.22-57.15.12-114.31.09-171.46,0-11.77-3.59-14.1-15.19-11.65-6.07,1.28-12.47.99-18.73,1.36-.82.05-1.83.07-2.47-.33-12.8-8.09-5.46-20.76-6.15-31.27-.18-2.74,7.75-8.54,12.07-8.66,29.61-.77,59.25-.23,88.87-.53,7.66-.08,10.57,2.51,10.39,10.3-.9,37.47,5.26,29.64-29.39,30.52-3.33.08-6.67.01-11.41.01Z"/>
  <path class="cls-3" d="m1439.72,569.51c0,36.86-.23,73.71.16,110.57.09,8.83-2.65,11.73-11.61,11.76-29.25.11-29.25.44-29.25-28.26,0-67.36.24-134.72-.24-202.07-.08-11.12,2.92-14.66,14.23-14.37,26.69.71,26.7.16,26.7,27.06v95.32Z"/>
  <path class="cls-3" d="m1470.24,234.4c0-33.03-.02-66.06.01-99.09.02-15.56,2.5-18.6,14.9-18.66,12.94-.06,15.59,2.88,15.6,17.95.04,51.66.02,103.32,0,154.98,0,2.95.14,5.98-.48,8.82-2.74,12.67,1.83,17.83,14.11,16.79,14.97-1.27,30.02-1.63,45.02-2.7,7.95-.57,10.32,2.97,10.14,10.49-.89,36.97,5.38,29.55-29.64,30.23-16.93.33-33.9-.64-50.79.28-13.31.72-18.89-.93-18.87-18.73.03-33.45,0-66.9,0-100.36Z"/>
  <path class="cls-1" d="m478.24,1508.63c0,11.01.07,22.02-.02,33.02-.12,16.34-6.28,20.39-22.24,17.94-25.64-3.94-42.39-17.61-51.77-41.55-6.29-16.06-1.4-41.54,11.91-52.69,3-2.52,8.38-2.89,12.7-3.01,12.67-.37,25.39.45,38.03-.3,7.86-.47,11.47,1.83,11.4,9.77-.1,12.28-.03,24.55-.03,36.83Z"/>
  <path class="cls-1" d="m511.31,1510.56c0-12.68-.18-25.35.06-38.02.17-8.84,2.28-14.03,13.78-11,9.11,2.39,19.27,1.1,28.96.95,16.2-.26,22.85,4.34,28.51,20.5,11.68,33.38-11.05,70.67-46.44,76.3-1.98.32-3.81,1.54-5.78,2-10.93,2.55-19.03-3.93-19.07-15.22-.04-11.83,0-23.66,0-35.49Z"/>
  <path class="cls-1" d="m478.24,1648.3c0,9.74.02,19.48,0,29.21-.03,13.38-5.7,18.37-17.81,13.72-30.85-11.85-46.95-50.13-26.64-80.38,2.47-3.68,9.96-5.48,15.18-5.59,29.27-.62,29.28-.35,29.28,29.06v13.97Z"/>
  <path class="cls-1" d="m511.31,1648.41c0-11.42-.65-22.9.41-34.23.3-3.29,5.29-6.34,8.51-9.04,1-.83,3.32-.37,4.96-.09,8.32,1.41,21.52.36,23.96,4.96,6.07,11.44,10.61,25.78,9.54,38.43-1.48,17.57-12.8,31.53-28.99,40.4-12.12,6.64-18.3,3.38-18.39-9.98-.07-10.15-.01-20.3-.01-30.46Z"/>
  <path class="cls-1" d="m412.46,1316.77c-5.02,4.51-8.11,9.37-11.82,9.89-2.46.35-8.48-5.84-8.12-8.45.52-3.8,4.8-8.52,8.55-9.88,2.09-.76,6.35,4.52,11.39,8.44Z"/>
  <path class="cls-1" d="m591.39,1307.61c1.97,4.61,4.69,9.11,5.42,13.91.2,1.33-6.11,5.55-8.42,4.89-3.24-.93-7.79-5.25-7.69-7.99.13-3.87,3.99-7.6,6.26-11.4,1.48.19,2.96.39,4.43.58Z"/>
  <path class="cls-2" d="m1210.48,1571.41c1.49-28.97,8.38-54.6,23.54-76.82,14.41-21.11,31.07-40.71,47.21-60.59,2.04-2.51,6.93-2.71,10.5-3.98.61,3.33,2,6.73,1.7,9.98-1.76,18.7-3.95,37.36-5.95,56.03-4.19,38.97-8.46,77.93-12.49,116.92-2.06,19.96-3.47,40-5.64,59.95-.59,5.46-2.85,10.74-4.35,16.1-3.91-3.07-8.33-5.67-11.66-9.28-28.66-31.14-38.34-69.72-42.86-108.3Z"/>
  <path class="cls-2" d="m1490.8,1506.43c-1.89,19.88-3.4,39.8-5.77,59.62-2.77,23.15-5.61,46.33-9.77,69.26-2.38,13.1-1.74,28.44-19.43,34.06-8.2,2.61-13.42.82-18.99-4.33-24.83-22.97-30.75-54.54-11.22-87.28,13.75-23.05,32.96-42.86,50.06-63.85,3.27-4.01,8.07-6.78,12.16-10.13.99.88,1.98,1.77,2.97,2.65Z"/>
  <path class="cls-2" d="m1389.85,1787.44c21.78-13.94,42.99-31.12,68.76-23.93,17.67,4.93,32.95,19.13,48.46,30.34,2.17,1.57,1.01,10.54-1.16,14.78-7.96,15.61-27.07,24.37-46.88,17.34-21.51-7.64-41.42-19.87-61.85-30.43-2.69-1.39-4.38-4.74-7.34-8.1Z"/>
  <path class="cls-2" d="m1416.41,1255.98c-3.52,23.87-2.65,33.77-33.55,39.28-10.19,1.82-20.44,3.53-30.74,4.54-8.65.85-13.43-4.59-11.5-12.46,3.31-13.47,6.47-27.57,13.13-39.48,10.28-18.37,39.07-23.51,54.85-10.54,4.6,3.78,5.31,12.31,7.8,18.67Z"/>
  <path class="cls-2" d="m1337.55,1864.44c22.7,15.46,36.56,54.69,25.67,79.35-3.98,9.02-13.79,16.25-22.51,21.84-2.24,1.44-12.36-5.21-15.58-10.25-11.8-18.47-3.52-74.19,12.43-90.95Z"/>
  <path class="cls-2" d="m1144.39,1868.81c1.52-12.85,12.59-21.45,22.9-27.67,18.09-10.92,38.02-18.9,57.54-27.25,5.32-2.27,10.56-.06,6.74,7.65-13.94,28.16-32.74,52.13-61.01,67.03-9.19,4.84-26.4-7.83-26.17-19.75Z"/>
  <path class="cls-2" d="m1408.82,1455.24c-12.36-.3-17.67-8.19-20.02-16.98-1.43-5.33-.57-13.77,2.86-17.44,9.04-9.66,19.81-17.81,30.5-25.74,1.95-1.45,8.55-.24,10,1.84,11.1,15.89.61,49.08-17.42,56.61-2.25.94-4.7,1.37-5.92,1.72Z"/>
  <path class="cls-2" d="m1330.19,1797.88c-7.18,1.12-12.51,3.52-16.73,2.24-6.45-1.94-12.46-5.97-18.05-9.95-5.87-4.18-11.01-9.68-4.55-17.06,1.61-1.83,6.81-3.04,8.49-1.86,8.78,6.14,16.99,13.11,25.32,19.89,1.23,1,2.07,2.49,5.51,6.75Z"/>
  <path class="cls-2" d="m1361.02,1336.4c-5.37,4.42-8.13,7.76-11.68,9.3-3.4,1.47-7.63,1.42-11.45,1.24-.9-.04-2.81-4.24-2.25-4.94,2.66-3.34,5.62-7.9,9.2-8.68,4.25-.92,9.24,1.57,16.18,3.08Z"/>
  <path class="cls-2" d="m1233.69,491.02c22.02,0,43.55-1.38,64.79.51,12.97,1.15,17.95,14.08,16.61,33.57-.76,11.02-9.47,20.28-21.71,21.36-16.2,1.43-32.51,1.66-48.74,2.79-8.19.57-11.36-2.42-11.08-10.82.5-15.17.14-30.38.14-47.41Z"/>
  <path class="cls-2" d="m602.88,490.65c19.97,0,38.89-.37,57.78.13,12.76.34,23.51,13.61,23.6,27.75.09,13.78-7.9,23.85-21.28,25.45-17.19,2.05-34.45,3.74-51.73,4.58-2.66.13-7.87-5.03-8.01-7.93-.78-16.32-.38-32.7-.38-49.99Z"/>
  <path class="cls-2" d="m1767.84,280.99c0-4.65.32-9.33-.06-13.95-1.25-15.55-1.35-15.54,14.63-15.54,2.96,0,5.92-.03,8.88,0,10.7.12,21.06-.88,27.84,11.21,7.87,14.03,5.41,27.04-.79,39.96-1.62,3.38-6.8,6.37-10.76,7.03-10.19,1.7-20.72,3.17-30.89,2.26-3.95-.36-9.49-6.96-10.37-11.48-1.18-6.06,1.46-12.87,2.45-19.35-.32-.04-.63-.09-.95-.13Z"/>
  <path class="cls-2" d="m1818.7,181.9c-.02,16.64-6.85,23.49-23.06,23.91-5.68.15-11.36,1.38-16.99,2.36-7.66,1.32-13.11-4.45-12.58-12.28.7-10.27.05-20.63.85-30.88.21-2.67,3.5-7.16,5.6-7.29,11.38-.72,23.19-2.13,34.14.15,11.74,2.45,12.32,13.78,12.05,24.04Z"/>
  <path class="cls-2" d="m536.74,232.38c0-22,.23-43.99-.11-65.98-.13-8.64,1.83-11.01,11.35-9.49,12.77,2.05,27.98-3.11,34.42,13.45,4.24,10.91,9.6,22.41,9.74,33.7.37,29.38,4.43,59.23-6.83,87.92-4.52,11.52-11.35,18.25-24.05,18.03-.85-.01-1.69-.02-2.54,0-6.73.16-17.39,2.9-19.35-.08-3.59-5.46-2.46-14.29-2.56-21.72-.25-18.61-.08-37.22-.08-55.83Z"/>
</svg>